<?xml version="1.0" encoding="UTF-8" standalone="no"?>
<!DOCTYPE svg PUBLIC "-//W3C//DTD SVG 1.1//EN" "http://www.w3.org/Graphics/SVG/1.1/DTD/svg11.dtd">
<svg version="1.1" xmlns="http://www.w3.org/2000/svg" xmlns:xlink="http://www.w3.org/1999/xlink" preserveAspectRatio="xMidYMid meet" viewBox="0 0 640 640" width="640" height="640"><defs><path d="M104.73 270.88L105.4 271.93L106.31 273.36L107.44 275.17L108.79 277.33L110.34 279.83L112.08 282.65L113.98 285.77L116.04 289.17L118.24 292.84L120.57 296.77L123.02 300.93L125.56 305.3L128.19 309.88L130.89 314.63L133.65 319.55L136.45 324.62L139.28 329.82L142.13 335.14L144.97 340.55L147.8 346.04L150.6 351.59L153.36 357.18L156.06 362.81L158.69 368.44L161.23 374.06L163.68 379.67L166.01 385.23L168.21 390.73L170.27 396.15L172.18 401.49L173.91 406.71L175.46 411.81L176.81 416.76L177.94 421.55L178.85 426.16L179.52 430.57L179.93 434.77L180.07 438.74L180 441.97L179.82 445.17L179.5 448.32L179.07 451.44L178.52 454.52L177.85 457.56L177.08 460.55L176.19 463.49L175.19 466.38L174.08 469.21L172.88 471.99L171.57 474.72L170.16 477.38L168.66 479.97L167.07 482.5L165.38 484.96L163.61 487.36L161.75 489.67L159.81 491.91L157.79 494.08L155.68 496.16L153.51 498.16L151.26 500.07L148.94 501.89L146.55 503.62L144.09 505.26L141.57 506.8L138.99 508.25L136.35 509.59L133.66 510.83L130.91 511.96L128.11 512.99L125.26 513.9L122.37 514.7L119.43 515.38L116.46 515.95L113.44 516.39L110.39 516.71L107.3 516.9L104.18 516.97L101.07 516.9L97.98 516.71L94.93 516.39L91.91 515.95L88.93 515.38L86 514.7L83.1 513.9L80.25 512.99L77.46 511.96L74.71 510.83L72.01 509.59L69.38 508.25L66.8 506.8L64.28 505.26L61.82 503.62L59.43 501.89L57.11 500.07L54.86 498.16L52.68 496.16L50.58 494.08L48.56 491.91L46.62 489.67L44.76 487.36L42.98 484.96L41.3 482.5L39.7 479.97L38.2 477.38L36.8 474.72L35.49 471.99L34.28 469.21L33.18 466.38L32.18 463.49L31.29 460.55L30.51 457.56L29.85 454.52L29.3 451.44L28.86 448.32L28.55 445.17L28.36 441.97L28.3 438.74L28.41 434.83L28.74 430.8L29.28 426.66L30.01 422.43L30.94 418.11L32.04 413.71L33.31 409.23L34.73 404.69L36.31 400.08L38.02 395.43L39.86 390.73L41.82 386L43.89 381.23L46.05 376.45L48.31 371.65L50.64 366.85L53.04 362.06L55.5 357.27L58 352.5L60.55 347.75L63.12 343.04L65.72 338.37L68.32 333.75L70.92 329.18L73.5 324.68L76.07 320.25L78.61 315.89L81.1 311.63L83.54 307.46L85.92 303.39L88.23 299.43L90.46 295.59L92.6 291.88L94.64 288.3L96.57 284.85L98.37 281.56L100.05 278.42L101.58 275.45L102.96 272.65L104.18 270.03L104.32 270.24L104.73 270.88ZM103.77 307.85L103.27 308.71L102.59 309.89L101.74 311.37L100.72 313.14L99.56 315.19L98.26 317.49L96.83 320.03L95.29 322.81L93.63 325.8L91.88 328.99L90.05 332.36L88.14 335.9L86.17 339.6L84.14 343.44L82.07 347.4L79.97 351.47L77.85 355.64L75.71 359.89L73.58 364.2L71.46 368.56L69.36 372.96L67.29 377.38L65.26 381.81L63.29 386.23L61.38 390.62L59.54 394.98L57.8 399.28L56.14 403.52L54.6 407.67L53.17 411.72L51.87 415.67L50.7 419.48L49.69 423.15L48.84 426.66L48.16 430.01L47.66 433.16L47.35 436.11L47.25 438.85L47.31 441.59L47.5 444.28L47.8 446.9L48.22 449.46L48.76 451.95L49.4 454.38L50.14 456.75L50.98 459.05L51.91 461.29L52.93 463.46L54.04 465.57L55.23 467.61L56.5 469.58L57.84 471.49L59.25 473.33L60.72 475.1L62.25 476.81L63.84 478.45L65.47 480.01L67.16 481.51L68.89 482.94L70.65 484.3L72.45 485.59L74.29 486.81L76.14 487.96L78.02 489.04L79.92 490.04L81.82 490.98L83.74 491.84L85.66 492.63L87.58 493.34L89.5 493.98L91.41 494.55L93.31 495.04L95.19 495.46L97.05 495.8L98.88 496.07L100.68 496.26L102.45 496.38L104.18 496.42L105.91 496.38L107.68 496.26L109.49 496.07L111.32 495.8L113.18 495.46L115.06 495.04L116.96 494.55L118.87 493.98L120.78 493.34L122.71 492.63L124.63 491.84L126.54 490.98L128.45 490.04L130.35 489.04L132.23 487.96L134.08 486.81L135.91 485.59L137.71 484.3L139.48 482.94L141.21 481.51L142.89 480.01L144.53 478.45L146.12 476.81L147.65 475.1L149.12 473.33L150.53 471.49L151.87 469.58L153.14 467.61L154.33 465.57L155.43 463.46L156.46 461.29L157.39 459.05L158.23 456.75L158.97 454.38L159.61 451.95L160.14 449.46L160.57 446.9L160.87 444.28L161.06 441.59L161.12 438.85L161.02 436.11L160.71 433.16L160.21 430.01L159.53 426.66L158.68 423.15L157.66 419.48L156.5 415.67L155.2 411.72L153.77 407.67L152.23 403.52L150.57 399.28L148.82 394.98L146.99 390.62L145.08 386.23L143.11 381.81L141.08 377.38L139.01 372.96L136.91 368.56L134.79 364.2L132.65 359.89L130.52 355.64L128.4 351.47L126.3 347.4L124.23 343.44L122.2 339.6L120.23 335.9L118.32 332.36L116.48 328.99L114.73 325.8L113.08 322.81L111.53 320.03L110.11 317.49L108.8 315.19L107.64 313.14L106.63 311.37L105.78 309.89L105.1 308.71L104.6 307.85L104.29 307.33L104.18 307.15L104.08 307.33L103.77 307.85Z" id="e2xn5r3XNQ"></path><path d="M345.46 221.71L346.33 222.97L347.52 224.69L349 226.86L350.76 229.45L352.79 232.45L355.06 235.83L357.54 239.57L360.24 243.66L363.12 248.06L366.17 252.77L369.36 257.76L372.69 263.01L376.13 268.5L379.66 274.21L383.26 280.11L386.93 286.19L390.62 292.43L394.34 298.81L398.06 305.3L401.76 311.88L405.42 318.54L409.03 325.26L412.56 332L415.99 338.76L419.32 345.51L422.52 352.23L425.57 358.9L428.45 365.5L431.14 372.02L433.63 378.41L435.9 384.68L437.92 390.79L439.68 396.74L441.17 402.48L442.36 408.01L443.23 413.31L443.76 418.35L443.95 423.11L443.86 426.99L443.62 430.82L443.21 434.61L442.64 438.35L441.92 442.05L441.05 445.69L440.03 449.27L438.87 452.8L437.57 456.27L436.12 459.67L434.55 463.01L432.84 466.27L431 469.46L429.04 472.58L426.95 475.62L424.75 478.57L422.43 481.44L420 484.22L417.46 486.91L414.82 489.5L412.07 492L409.22 494.4L406.28 496.69L403.25 498.88L400.12 500.96L396.91 502.92L393.62 504.77L390.24 506.5L386.79 508.12L383.27 509.6L379.68 510.96L376.02 512.19L372.3 513.29L368.52 514.24L364.68 515.06L360.78 515.74L356.84 516.27L352.85 516.66L348.81 516.89L344.74 516.97L340.66 516.89L336.63 516.66L332.64 516.27L328.69 515.74L324.8 515.06L320.96 514.24L317.18 513.29L313.45 512.19L309.8 510.96L306.2 509.6L302.68 508.12L299.23 506.5L295.86 504.77L292.56 502.92L289.35 500.96L286.23 498.88L283.19 496.69L280.25 494.4L277.41 492L274.66 489.5L272.01 486.91L269.47 484.22L267.04 481.44L264.73 478.57L262.52 475.62L260.44 472.58L258.48 469.46L256.64 466.27L254.93 463.01L253.35 459.67L251.91 456.27L250.6 452.8L249.44 449.27L248.42 445.69L247.55 442.05L246.83 438.35L246.27 434.61L245.86 430.82L245.61 426.99L245.53 423.11L245.67 418.41L246.11 413.58L246.81 408.62L247.77 403.54L248.98 398.36L250.42 393.08L252.08 387.7L253.94 382.25L256 376.73L258.24 371.14L260.65 365.51L263.21 359.83L265.91 354.11L268.74 348.37L271.69 342.62L274.74 336.86L277.87 331.1L281.09 325.36L284.36 319.63L287.69 313.94L291.06 308.29L294.45 302.68L297.85 297.14L301.24 291.66L304.63 286.26L307.98 280.94L311.3 275.72L314.56 270.6L317.75 265.6L320.87 260.72L323.89 255.97L326.8 251.36L329.6 246.9L332.26 242.61L334.78 238.48L337.14 234.53L339.33 230.76L341.33 227.19L343.14 223.83L344.74 220.69L344.92 220.95L345.46 221.71ZM344.2 266.07L343.54 267.1L342.65 268.52L341.54 270.29L340.22 272.42L338.7 274.87L337 277.63L335.13 280.69L333.11 284.01L330.95 287.6L328.66 291.43L326.26 295.47L323.76 299.72L321.18 304.16L318.54 308.76L315.83 313.52L313.08 318.4L310.31 323.4L307.52 328.5L304.73 333.67L301.95 338.91L299.21 344.19L296.5 349.49L293.85 354.81L291.27 360.11L288.78 365.38L286.38 370.61L284.09 375.77L281.93 380.85L279.91 385.83L278.04 390.7L276.34 395.42L274.82 400L273.5 404.41L272.38 408.62L271.49 412.63L270.84 416.42L270.44 419.96L270.3 423.24L270.38 426.53L270.63 429.75L271.03 432.9L271.58 435.97L272.27 438.96L273.11 441.88L274.08 444.72L275.18 447.48L276.4 450.16L277.74 452.77L279.19 455.3L280.74 457.74L282.4 460.11L284.15 462.4L285.99 464.61L287.91 466.74L289.91 468.78L291.99 470.75L294.13 472.63L296.33 474.43L298.59 476.14L300.9 477.78L303.26 479.32L305.65 480.79L308.08 482.17L310.53 483.46L313.01 484.66L315.5 485.78L318.01 486.82L320.52 487.76L323.04 488.62L325.54 489.39L328.04 490.07L330.52 490.66L332.98 491.16L335.41 491.57L337.8 491.9L340.16 492.12L342.47 492.26L344.74 492.31L347 492.26L349.32 492.12L351.67 491.9L354.07 491.57L356.5 491.16L358.96 490.66L361.44 490.07L363.93 489.39L366.44 488.62L368.95 487.76L371.46 486.82L373.97 485.78L376.47 484.66L378.94 483.46L381.4 482.17L383.83 480.79L386.22 479.32L388.57 477.78L390.88 476.15L393.14 474.43L395.35 472.63L397.49 470.75L399.56 468.78L401.56 466.74L403.49 464.61L405.33 462.4L407.08 460.11L408.74 457.75L410.29 455.3L411.74 452.77L413.08 450.16L414.3 447.48L415.4 444.72L416.37 441.88L417.2 438.96L417.9 435.97L418.45 432.9L418.85 429.75L419.1 426.53L419.18 423.24L419.04 419.96L418.64 416.42L417.98 412.63L417.09 408.62L415.98 404.41L414.66 400L413.14 395.42L411.44 390.7L409.57 385.83L407.55 380.85L405.39 375.77L403.1 370.61L400.7 365.38L398.2 360.11L395.62 354.81L392.98 349.49L390.27 344.19L387.52 338.91L384.75 333.67L381.96 328.5L379.17 323.4L376.39 318.4L373.65 313.52L370.94 308.76L368.29 304.16L365.71 299.72L363.22 295.47L360.82 291.43L358.53 287.6L356.37 284.01L354.35 280.69L352.48 277.63L350.78 274.87L349.26 272.42L347.94 270.29L346.82 268.52L345.93 267.1L345.28 266.07L344.87 265.44L344.74 265.23L344.6 265.44L344.2 266.07Z" id="h4yceu7Xj"></path></defs><g><g><g><use xlink:href="#e2xn5r3XNQ" opacity="1" fill="#000000" fill-opacity="1"></use><g><use xlink:href="#e2xn5r3XNQ" opacity="1" fill-opacity="0" stroke="#000000" stroke-width="1" stroke-opacity="0"></use></g></g><g><use xlink:href="#h4yceu7Xj" opacity="1" fill="#000000" fill-opacity="1"></use><g><use xlink:href="#h4yceu7Xj" opacity="1" fill-opacity="0" stroke="#000000" stroke-width="1" stroke-opacity="0"></use></g></g></g></g></svg>