<?xml version="1.0" encoding="UTF-8" standalone="no"?>
<!DOCTYPE svg PUBLIC "-//W3C//DTD SVG 1.1//EN" "http://www.w3.org/Graphics/SVG/1.1/DTD/svg11.dtd">
<svg version="1.1" xmlns="http://www.w3.org/2000/svg" xmlns:xlink="http://www.w3.org/1999/xlink" preserveAspectRatio="xMidYMid meet" viewBox="0 0 640 640" width="640" height="640"><defs><path d="M128.23 221.71L129.1 222.97L130.29 224.69L131.77 226.86L133.53 229.45L135.56 232.45L137.83 235.83L140.32 239.57L143.01 243.66L145.89 248.06L148.94 252.77L152.13 257.76L155.46 263.01L158.9 268.5L162.43 274.21L166.04 280.11L169.7 286.19L173.4 292.43L177.11 298.81L180.83 305.3L184.53 311.88L188.19 318.54L191.8 325.26L195.33 332L198.77 338.76L202.09 345.51L205.29 352.23L208.34 358.9L211.22 365.5L213.91 372.02L216.4 378.41L218.67 384.68L220.69 390.79L222.45 396.74L223.94 402.48L225.13 408.01L226 413.31L226.53 418.35L226.72 423.11L226.63 426.99L226.39 430.82L225.98 434.61L225.41 438.35L224.69 442.05L223.82 445.69L222.8 449.27L221.64 452.8L220.34 456.27L218.89 459.67L217.32 463.01L215.61 466.27L213.77 469.46L211.81 472.58L209.72 475.62L207.52 478.57L205.2 481.44L202.77 484.22L200.23 486.91L197.59 489.5L194.84 492L191.99 494.4L189.05 496.69L186.02 498.88L182.89 500.96L179.68 502.92L176.39 504.77L173.01 506.5L169.57 508.12L166.04 509.6L162.45 510.96L158.79 512.19L155.07 513.29L151.29 514.24L147.45 515.06L143.55 515.74L139.61 516.27L135.62 516.66L131.58 516.89L127.51 516.97L123.43 516.89L119.4 516.66L115.41 516.27L111.46 515.74L107.57 515.06L103.73 514.24L99.95 513.29L96.22 512.19L92.57 510.96L88.97 509.6L85.45 508.12L82 506.5L78.63 504.77L75.33 502.92L72.12 500.96L69 498.88L65.97 496.69L63.02 494.4L60.18 492L57.43 489.5L54.78 486.91L52.24 484.22L49.81 481.44L47.5 478.57L45.29 475.62L43.21 472.58L41.25 469.46L39.41 466.27L37.7 463.01L36.12 459.67L34.68 456.27L33.37 452.8L32.21 449.27L31.19 445.69L30.32 442.05L29.6 438.35L29.04 434.61L28.63 430.82L28.38 426.99L28.3 423.11L28.45 418.41L28.88 413.58L29.58 408.62L30.54 403.54L31.75 398.36L33.19 393.08L34.85 387.7L36.71 382.25L38.77 376.73L41.01 371.14L43.42 365.51L45.98 359.83L48.68 354.11L51.51 348.37L54.46 342.62L57.51 336.86L60.64 331.1L63.86 325.36L67.14 319.63L70.46 313.94L73.83 308.29L77.22 302.68L80.62 297.14L84.01 291.66L87.4 286.26L90.75 280.94L94.07 275.72L97.33 270.6L100.52 265.6L103.64 260.72L106.66 255.97L109.57 251.36L112.37 246.9L115.03 242.61L117.55 238.48L119.91 234.53L122.1 230.76L124.1 227.19L125.91 223.83L127.51 220.69L127.69 220.95L128.23 221.71ZM126.97 266.07L126.31 267.1L125.42 268.52L124.31 270.29L122.99 272.42L121.47 274.87L119.77 277.63L117.9 280.69L115.88 284.01L113.72 287.6L111.43 291.43L109.03 295.47L106.53 299.72L103.96 304.16L101.31 308.76L98.6 313.52L95.85 318.4L93.08 323.4L90.29 328.5L87.5 333.67L84.72 338.91L81.98 344.19L79.27 349.49L76.62 354.81L74.04 360.11L71.55 365.38L69.15 370.61L66.86 375.77L64.7 380.85L62.68 385.83L60.81 390.7L59.11 395.42L57.59 400L56.27 404.41L55.15 408.62L54.26 412.63L53.61 416.42L53.21 419.96L53.07 423.24L53.15 426.53L53.4 429.75L53.8 432.9L54.35 435.97L55.04 438.96L55.88 441.88L56.85 444.72L57.95 447.48L59.17 450.16L60.51 452.77L61.96 455.3L63.51 457.74L65.17 460.11L66.92 462.4L68.76 464.61L70.68 466.74L72.68 468.78L74.76 470.75L76.9 472.63L79.1 474.43L81.36 476.14L83.67 477.78L86.03 479.32L88.42 480.79L90.85 482.17L93.3 483.46L95.78 484.66L98.28 485.78L100.78 486.82L103.29 487.76L105.81 488.62L108.31 489.39L110.81 490.07L113.29 490.66L115.75 491.16L118.18 491.57L120.57 491.9L122.93 492.12L125.24 492.26L127.51 492.31L129.77 492.26L132.09 492.12L134.44 491.9L136.84 491.57L139.27 491.16L141.73 490.66L144.21 490.07L146.7 489.39L149.21 488.62L151.72 487.76L154.23 486.82L156.74 485.78L159.24 484.66L161.71 483.46L164.17 482.17L166.6 480.79L168.99 479.32L171.34 477.78L173.65 476.15L175.91 474.43L178.12 472.63L180.26 470.75L182.33 468.78L184.34 466.74L186.26 464.61L188.1 462.4L189.85 460.11L191.51 457.75L193.06 455.3L194.51 452.77L195.85 450.16L197.07 447.48L198.17 444.72L199.14 441.88L199.97 438.96L200.67 435.97L201.22 432.9L201.62 429.75L201.87 426.53L201.95 423.24L201.81 419.96L201.41 416.42L200.76 412.63L199.86 408.62L198.75 404.41L197.43 400L195.91 395.42L194.21 390.7L192.34 385.83L190.32 380.85L188.16 375.77L185.87 370.61L183.47 365.38L180.97 360.11L178.4 354.81L175.75 349.49L173.04 344.19L170.29 338.91L167.52 333.67L164.73 328.5L161.94 323.4L159.16 318.4L156.42 313.52L153.71 308.76L151.06 304.16L148.48 299.72L145.99 295.47L143.59 291.43L141.3 287.6L139.14 284.01L137.12 280.69L135.25 277.63L133.55 274.87L132.03 272.42L130.71 270.29L129.59 268.52L128.7 267.1L128.05 266.07L127.65 265.44L127.51 265.23L127.37 265.44L126.97 266.07Z" id="b1ZzxoPHIx"></path></defs><g><g><g><use xlink:href="#b1ZzxoPHIx" opacity="1" fill="#000000" fill-opacity="1"></use><g><use xlink:href="#b1ZzxoPHIx" opacity="1" fill-opacity="0" stroke="#000000" stroke-width="1" stroke-opacity="0"></use></g></g></g></g></svg>