<?xml version="1.0" encoding="UTF-8" standalone="no"?>
<!DOCTYPE svg PUBLIC "-//W3C//DTD SVG 1.1//EN" "http://www.w3.org/Graphics/SVG/1.1/DTD/svg11.dtd">
<svg version="1.1" xmlns="http://www.w3.org/2000/svg" xmlns:xlink="http://www.w3.org/1999/xlink" preserveAspectRatio="xMidYMid meet" viewBox="0 0 640 640" width="640" height="640"><defs><path d="M81.41 273.58L82.08 274.62L82.98 276.06L84.12 277.86L85.47 280.02L87.02 282.52L88.75 285.34L90.66 288.46L92.72 291.86L94.92 295.54L97.25 299.46L99.69 303.62L102.24 307.99L104.87 312.57L107.57 317.32L110.33 322.25L113.13 327.32L115.96 332.52L118.8 337.83L121.64 343.24L124.47 348.73L127.27 354.28L130.03 359.87L132.73 365.5L135.36 371.13L137.91 376.76L140.35 382.36L142.68 387.92L144.89 393.42L146.95 398.85L148.85 404.18L150.59 409.4L152.13 414.5L153.48 419.45L154.62 424.24L155.53 428.85L156.19 433.26L156.6 437.46L156.74 441.43L156.68 444.66L156.49 447.86L156.18 451.02L155.75 454.14L155.2 457.21L154.53 460.25L153.75 463.24L152.86 466.18L151.86 469.07L150.76 471.91L149.55 474.69L148.25 477.41L146.84 480.07L145.34 482.66L143.74 485.19L142.06 487.66L140.29 490.05L138.43 492.36L136.48 494.61L134.46 496.77L132.36 498.85L130.18 500.85L127.93 502.76L125.61 504.58L123.22 506.31L120.77 507.95L118.25 509.49L115.67 510.94L113.03 512.28L110.33 513.52L107.59 514.65L104.79 515.68L101.94 516.59L99.05 517.39L96.11 518.07L93.13 518.64L90.12 519.08L87.06 519.4L83.98 519.59L80.86 519.66L77.74 519.59L74.66 519.4L71.6 519.08L68.59 518.64L65.61 518.07L62.67 517.39L59.78 516.59L56.93 515.68L54.13 514.65L51.38 513.52L48.69 512.28L46.05 510.94L43.47 509.49L40.95 507.95L38.5 506.31L36.11 504.58L33.79 502.76L31.53 500.85L29.36 498.85L27.26 496.77L25.23 494.61L23.29 492.36L21.43 490.05L19.66 487.66L17.97 485.19L16.38 482.66L14.88 480.07L13.47 477.41L12.16 474.69L10.96 471.91L9.85 469.07L8.86 466.18L7.97 463.24L7.19 460.25L6.52 457.21L5.97 454.14L5.54 451.02L5.23 447.86L5.04 444.66L4.97 441.43L5.09 437.52L5.42 433.49L5.95 429.35L6.69 425.12L7.61 420.8L8.71 416.4L9.98 411.92L11.41 407.38L12.98 402.77L14.7 398.12L16.54 393.42L18.5 388.69L20.56 383.92L22.73 379.14L24.98 374.35L27.31 369.55L29.71 364.75L32.17 359.96L34.68 355.19L37.23 350.44L39.8 345.73L42.39 341.06L44.99 336.44L47.59 331.87L50.18 327.37L52.75 322.94L55.28 318.59L57.77 314.32L60.22 310.15L62.6 306.08L64.91 302.12L67.14 298.28L69.28 294.57L71.31 290.99L73.24 287.55L75.05 284.25L76.72 281.12L78.25 278.14L79.64 275.34L80.86 272.72L81 272.93L81.41 273.58ZM80.45 310.55L79.95 311.41L79.26 312.58L78.41 314.06L77.4 315.83L76.24 317.88L74.94 320.18L73.51 322.73L71.96 325.5L70.31 328.49L68.56 331.68L66.73 335.05L64.82 338.59L62.84 342.29L60.82 346.13L58.75 350.09L56.65 354.16L54.52 358.33L52.39 362.58L50.26 366.89L48.13 371.25L46.03 375.65L43.96 380.08L41.94 384.5L39.96 388.92L38.05 393.32L36.22 397.67L34.47 401.97L32.82 406.21L31.27 410.36L29.84 414.42L28.54 418.36L27.38 422.17L26.37 425.84L25.52 429.36L24.83 432.7L24.33 435.85L24.03 438.8L23.92 441.54L23.98 444.29L24.17 446.97L24.48 449.59L24.9 452.15L25.43 454.64L26.07 457.07L26.81 459.44L27.65 461.74L28.59 463.98L29.61 466.15L30.72 468.26L31.91 470.3L33.17 472.27L34.51 474.18L35.92 476.02L37.39 477.79L38.92 479.5L40.51 481.14L42.15 482.71L43.83 484.2L45.56 485.63L47.33 486.99L49.13 488.28L50.96 489.5L52.82 490.65L54.7 491.73L56.59 492.74L58.5 493.67L60.42 494.53L62.34 495.32L64.26 496.03L66.18 496.67L68.09 497.24L69.98 497.73L71.86 498.15L73.72 498.49L75.55 498.76L77.36 498.95L79.13 499.07L80.86 499.11L82.59 499.07L84.36 498.95L86.16 498.76L88 498.49L89.86 498.15L91.74 497.73L93.63 497.24L95.54 496.67L97.46 496.03L99.38 495.32L101.3 494.53L103.22 493.67L105.13 492.74L107.02 491.73L108.9 490.65L110.76 489.5L112.59 488.28L114.39 486.99L116.16 485.63L117.88 484.2L119.57 482.71L121.21 481.14L122.79 479.5L124.33 477.79L125.8 476.02L127.21 474.18L128.54 472.27L129.81 470.3L131 468.26L132.11 466.15L133.13 463.98L134.07 461.74L134.91 459.44L135.65 457.07L136.29 454.64L136.82 452.15L137.24 449.59L137.55 446.97L137.73 444.29L137.8 441.54L137.69 438.8L137.39 435.85L136.89 432.7L136.2 429.36L135.35 425.84L134.34 422.17L133.18 418.36L131.88 414.42L130.45 410.36L128.9 406.21L127.25 401.97L125.5 397.67L123.66 393.32L121.76 388.92L119.78 384.5L117.76 380.08L115.69 375.65L113.58 371.25L111.46 366.89L109.33 362.58L107.2 358.33L105.07 354.16L102.97 350.09L100.9 346.13L98.87 342.29L96.9 338.59L94.99 335.05L93.16 331.68L91.41 328.49L89.76 325.5L88.21 322.73L86.78 320.18L85.48 317.88L84.32 315.83L83.31 314.06L82.45 312.58L81.77 311.41L81.27 310.55L80.96 310.02L80.86 309.84L80.75 310.02L80.45 310.55Z" id="cbvlhBqw5"></path><path d="M271.88 229.02L272.74 230.28L273.9 232L275.36 234.17L277.09 236.76L279.08 239.76L281.31 243.14L283.75 246.88L286.4 250.96L289.22 255.37L292.22 260.08L295.36 265.07L298.62 270.32L302 275.81L305.47 281.51L309.01 287.42L312.6 293.5L316.23 299.74L319.88 306.12L323.53 312.61L327.16 319.19L330.76 325.85L334.3 332.56L337.77 339.31L341.14 346.07L344.41 352.82L347.55 359.54L350.54 366.21L353.37 372.81L356.01 379.32L358.46 385.72L360.68 391.99L362.67 398.1L364.4 404.04L365.86 409.79L367.03 415.32L367.88 420.62L368.41 425.66L368.59 430.42L368.51 434.3L368.27 438.13L367.87 441.92L367.31 445.66L366.6 449.36L365.75 453L364.75 456.58L363.61 460.11L362.32 463.58L360.91 466.98L359.36 470.32L357.68 473.58L355.88 476.77L353.95 479.89L351.9 482.93L349.74 485.88L347.46 488.75L345.08 491.53L342.58 494.22L339.99 496.81L337.29 499.31L334.49 501.71L331.61 504L328.63 506.19L325.56 508.26L322.4 510.23L319.17 512.08L315.86 513.81L312.47 515.42L309.01 516.91L305.49 518.27L301.89 519.5L298.24 520.59L294.52 521.55L290.75 522.37L286.93 523.05L283.06 523.58L279.14 523.97L275.18 524.2L271.18 524.28L267.17 524.2L263.21 523.97L259.29 523.58L255.42 523.05L251.6 522.37L247.83 521.55L244.11 520.59L240.46 519.5L236.87 518.27L233.34 516.91L229.88 515.42L226.49 513.81L223.18 512.08L219.95 510.23L216.79 508.26L213.73 506.19L210.75 504L207.86 501.71L205.06 499.31L202.36 496.81L199.77 494.22L197.27 491.53L194.89 488.75L192.61 485.88L190.45 482.93L188.4 479.89L186.47 476.77L184.67 473.58L182.99 470.32L181.44 466.98L180.03 463.58L178.74 460.11L177.6 456.58L176.6 453L175.75 449.36L175.04 445.66L174.49 441.92L174.08 438.13L173.84 434.3L173.76 430.42L173.9 425.72L174.33 420.89L175.02 415.93L175.96 410.85L177.15 405.67L178.56 400.38L180.19 395.01L182.02 389.56L184.04 384.04L186.24 378.45L188.6 372.82L191.12 367.14L193.77 361.42L196.55 355.68L199.45 349.93L202.44 344.17L205.52 338.41L208.68 332.67L211.89 326.94L215.16 321.25L218.47 315.6L221.79 309.99L225.13 304.45L228.47 298.97L231.79 293.56L235.09 288.25L238.34 283.03L241.54 277.91L244.68 272.91L247.73 268.03L250.7 263.28L253.56 258.67L256.31 254.21L258.92 249.91L261.4 245.79L263.71 241.83L265.86 238.07L267.83 234.5L269.61 231.14L271.18 227.99L271.36 228.26L271.88 229.02ZM270.65 273.38L270 274.41L269.13 275.83L268.03 277.6L266.74 279.73L265.24 282.18L263.57 284.94L261.74 287.99L259.75 291.32L257.63 294.91L255.39 298.74L253.03 302.78L250.58 307.03L248.05 311.47L245.45 316.07L242.79 320.83L240.09 325.71L237.37 330.71L234.63 335.81L231.89 340.98L229.17 346.22L226.47 351.5L223.81 356.8L221.21 362.11L218.68 367.42L216.23 372.69L213.87 377.92L211.63 383.08L209.5 388.16L207.52 393.14L205.69 398L204.02 402.73L202.52 407.31L201.22 411.71L200.13 415.93L199.26 419.94L198.61 423.72L198.22 427.27L198.08 430.55L198.16 433.84L198.4 437.06L198.8 440.21L199.34 443.28L200.02 446.27L200.84 449.18L201.8 452.02L202.87 454.79L204.07 457.47L205.39 460.08L206.81 462.6L208.34 465.05L209.96 467.42L211.68 469.71L213.49 471.92L215.38 474.05L217.34 476.09L219.38 478.06L221.48 479.94L223.65 481.74L225.86 483.45L228.13 485.09L230.44 486.63L232.79 488.1L235.18 489.47L237.59 490.77L240.02 491.97L242.47 493.09L244.93 494.13L247.4 495.07L249.87 495.93L252.33 496.7L254.78 497.38L257.21 497.97L259.63 498.47L262.01 498.88L264.37 499.2L266.68 499.43L268.95 499.57L271.18 499.62L273.4 499.57L275.67 499.43L277.99 499.2L280.34 498.88L282.73 498.47L285.14 497.97L287.57 497.38L290.02 496.7L292.49 495.93L294.95 495.07L297.42 494.13L299.88 493.09L302.33 491.97L304.76 490.77L307.17 489.47L309.56 488.1L311.91 486.63L314.22 485.09L316.49 483.45L318.71 481.74L320.87 479.94L322.97 478.06L325.01 476.09L326.98 474.05L328.86 471.92L330.67 469.71L332.39 467.42L334.02 465.05L335.54 462.61L336.97 460.08L338.28 457.47L339.48 454.79L340.56 452.02L341.51 449.18L342.33 446.27L343.01 443.28L343.56 440.21L343.95 437.06L344.19 433.84L344.27 430.55L344.14 427.27L343.74 423.72L343.1 419.94L342.22 415.93L341.13 411.71L339.83 407.31L338.34 402.73L336.67 398L334.83 393.14L332.85 388.16L330.73 383.08L328.48 377.92L326.13 372.69L323.68 367.42L321.14 362.11L318.54 356.8L315.88 351.5L313.19 346.22L310.46 340.98L307.72 335.81L304.98 330.71L302.26 325.71L299.56 320.83L296.9 316.07L294.3 311.47L291.77 307.03L289.32 302.78L286.96 298.74L284.72 294.91L282.6 291.32L280.61 287.99L278.78 284.94L277.11 282.18L275.62 279.73L274.32 277.6L273.22 275.83L272.35 274.41L271.71 273.38L271.31 272.75L271.18 272.53L271.04 272.75L270.65 273.38Z" id="c4IYdQXV48"></path><path d="M507.23 166.3L508.3 167.8L509.75 169.86L511.57 172.45L513.74 175.56L516.22 179.14L519 183.19L522.05 187.67L525.35 192.56L528.88 197.83L532.62 203.47L536.54 209.44L540.62 215.72L544.83 222.29L549.16 229.12L553.58 236.19L558.07 243.47L562.61 250.93L567.17 258.56L571.72 266.33L576.26 274.21L580.75 282.18L585.17 290.22L589.5 298.29L593.71 306.38L597.79 314.46L601.71 322.5L605.45 330.49L608.98 338.39L612.28 346.18L615.33 353.84L618.11 361.34L620.59 368.65L622.76 375.76L624.58 382.64L626.03 389.26L627.1 395.6L627.76 401.63L627.98 407.33L627.88 411.97L627.58 416.56L627.08 421.09L626.39 425.57L625.5 429.99L624.43 434.35L623.19 438.64L621.76 442.87L620.16 447.02L618.39 451.09L616.46 455.08L614.36 458.99L612.11 462.81L609.7 466.54L607.15 470.17L604.45 473.7L601.6 477.14L598.62 480.46L595.51 483.68L592.27 486.79L588.9 489.78L585.41 492.65L581.8 495.39L578.08 498.01L574.25 500.5L570.31 502.85L566.28 505.06L562.14 507.14L557.91 509.06L553.59 510.84L549.19 512.47L544.7 513.94L540.14 515.25L535.5 516.4L530.79 517.38L526.02 518.19L521.18 518.83L516.29 519.29L511.34 519.57L506.35 519.66L501.35 519.57L496.4 519.29L491.51 518.83L486.67 518.19L481.9 517.38L477.19 516.4L472.56 515.25L467.99 513.94L463.51 512.47L459.1 510.84L454.78 509.06L450.55 507.14L446.42 505.06L442.38 502.85L438.44 500.5L434.61 498.01L430.89 495.39L427.28 492.65L423.79 489.78L420.43 486.79L417.18 483.68L414.07 480.46L411.09 477.14L408.25 473.7L405.55 470.17L402.99 466.54L400.58 462.81L398.33 458.99L396.24 455.08L394.3 451.09L392.53 447.02L390.93 442.87L389.51 438.64L388.26 434.35L387.19 429.99L386.31 425.57L385.62 421.09L385.12 416.56L384.81 411.97L384.71 407.33L384.89 401.71L385.42 395.92L386.28 389.99L387.46 383.91L388.94 377.71L390.7 371.38L392.74 364.95L395.02 358.43L397.55 351.82L400.29 345.14L403.25 338.39L406.39 331.59L409.7 324.75L413.17 317.88L416.78 311L420.52 304.1L424.37 297.21L428.31 290.34L432.33 283.49L436.41 276.67L440.53 269.91L444.69 263.2L448.85 256.56L453.02 250.01L457.17 243.54L461.28 237.18L465.35 230.93L469.35 224.81L473.26 218.82L477.08 212.98L480.78 207.29L484.36 201.78L487.78 196.44L491.05 191.3L494.14 186.36L497.03 181.63L499.71 177.13L502.17 172.86L504.39 168.83L506.35 165.07L506.57 165.38L507.23 166.3ZM505.69 219.38L504.88 220.62L503.79 222.31L502.43 224.44L500.8 226.98L498.94 229.91L496.86 233.22L494.57 236.87L492.09 240.86L489.44 245.15L486.63 249.73L483.69 254.57L480.63 259.66L477.47 264.97L474.22 270.48L470.9 276.17L467.54 282.01L464.13 288L460.71 294.1L457.29 300.29L453.89 306.56L450.52 312.88L447.21 319.22L443.96 325.58L440.8 331.93L437.74 338.24L434.79 344.49L431.99 350.67L429.34 356.75L426.86 362.71L424.57 368.54L422.49 374.19L420.63 379.67L419 384.94L417.64 389.99L416.54 394.79L415.74 399.32L415.25 403.56L415.08 407.49L415.18 411.43L415.48 415.28L415.97 419.04L416.65 422.72L417.5 426.3L418.53 429.79L419.72 433.19L421.06 436.49L422.56 439.71L424.2 442.82L425.98 445.85L427.88 448.78L429.91 451.62L432.06 454.35L434.32 457L436.67 459.54L439.13 461.99L441.67 464.34L444.3 466.6L447 468.75L449.77 470.8L452.6 472.75L455.49 474.61L458.42 476.36L461.4 478.01L464.41 479.55L467.45 481L470.51 482.34L473.58 483.57L476.66 484.71L479.74 485.73L482.81 486.65L485.87 487.47L488.91 488.18L491.93 488.78L494.9 489.27L497.84 489.65L500.73 489.93L503.57 490.09L506.35 490.15L509.12 490.09L511.96 489.93L514.85 489.65L517.79 489.27L520.77 488.78L523.78 488.18L526.82 487.47L529.88 486.65L532.96 485.73L536.04 484.71L539.12 483.57L542.19 482.34L545.25 481L548.29 479.55L551.3 478.01L554.27 476.36L557.21 474.61L560.09 472.75L562.92 470.8L565.69 468.75L568.4 466.6L571.02 464.34L573.57 461.99L576.02 459.54L578.38 457L580.64 454.36L582.78 451.62L584.81 448.78L586.72 445.85L588.5 442.83L590.14 439.71L591.63 436.49L592.98 433.19L594.17 429.79L595.19 426.3L596.05 422.72L596.72 419.04L597.21 415.28L597.51 411.43L597.62 407.49L597.45 403.56L596.95 399.32L596.15 394.79L595.06 389.99L593.69 384.94L592.07 379.67L590.21 374.19L588.12 368.54L585.83 362.71L583.36 356.75L580.71 350.67L577.9 344.49L574.96 338.24L571.9 331.93L568.74 325.58L565.49 319.22L562.17 312.88L558.8 306.56L555.4 300.29L551.98 294.1L548.56 288L545.16 282.01L541.79 276.17L538.47 270.48L535.23 264.97L532.06 259.66L529 254.57L526.06 249.73L523.26 245.15L520.61 240.86L518.13 236.87L515.84 233.22L513.75 229.91L511.89 226.98L510.27 224.44L508.9 222.31L507.81 220.62L507.01 219.38L506.52 218.63L506.35 218.37L506.18 218.63L505.69 219.38Z" id="bNCf8NJyg"></path></defs><g><g><g><use xlink:href="#cbvlhBqw5" opacity="1" fill="#000000" fill-opacity="1"></use><g><use xlink:href="#cbvlhBqw5" opacity="1" fill-opacity="0" stroke="#000000" stroke-width="1" stroke-opacity="0"></use></g></g><g><use xlink:href="#c4IYdQXV48" opacity="1" fill="#000000" fill-opacity="1"></use><g><use xlink:href="#c4IYdQXV48" opacity="1" fill-opacity="0" stroke="#000000" stroke-width="1" stroke-opacity="0"></use></g></g><g><use xlink:href="#bNCf8NJyg" opacity="1" fill="#000000" fill-opacity="1"></use><g><use xlink:href="#bNCf8NJyg" opacity="1" fill-opacity="0" stroke="#000000" stroke-width="1" stroke-opacity="0"></use></g></g></g></g></svg>